<?xml version="1.0" encoding="UTF-8" standalone="no"?>
<!-- Created with Inkscape (http://www.inkscape.org/) -->

<svg
   xmlns:dc="http://purl.org/dc/elements/1.1/"
   xmlns:cc="http://creativecommons.org/ns#"
   xmlns:rdf="http://www.w3.org/1999/02/22-rdf-syntax-ns#"
   xmlns:svg="http://www.w3.org/2000/svg"
   xmlns="http://www.w3.org/2000/svg"
   xmlns:xlink="http://www.w3.org/1999/xlink"
   xmlns:sodipodi="http://sodipodi.sourceforge.net/DTD/sodipodi-0.dtd"
   xmlns:inkscape="http://www.inkscape.org/namespaces/inkscape"
   width="210mm"
   height="297mm"
   viewBox="0 0 210 297"
   version="1.1"
   id="svg8"
   inkscape:version="0.92.4 (unknown)"
   sodipodi:docname="Schematic_2D.svg"
   inkscape:export-filename="/media/peyman/New HDD/Github/Nepal_Velocity_Model/Schematic_2D.png"
   inkscape:export-xdpi="1022.39"
   inkscape:export-ydpi="1022.39">
  <defs
     id="defs2">
    <linearGradient
       inkscape:collect="always"
       id="linearGradient1529">
      <stop
         style="stop-color:#ff7e7e;stop-opacity:1;"
         offset="0"
         id="stop1525" />
      <stop
         style="stop-color:#ff7e7e;stop-opacity:0;"
         offset="1"
         id="stop1527" />
    </linearGradient>
    <marker
       inkscape:stockid="Arrow1Lend"
       orient="auto"
       refY="0.0"
       refX="0.0"
       id="Arrow1Lend"
       style="overflow:visible;"
       inkscape:isstock="true">
      <path
         id="path876"
         d="M 0.0,0.0 L 5.0,-5.0 L -12.5,0.0 L 5.0,5.0 L 0.0,0.0 z "
         style="fill-rule:evenodd;stroke:#000000;stroke-width:1pt;stroke-opacity:1;fill:#000000;fill-opacity:1"
         transform="scale(0.8) rotate(180) translate(12.5,0)" />
    </marker>
    <marker
       inkscape:stockid="Arrow1Lend"
       orient="auto"
       refY="0"
       refX="0"
       id="Arrow1Lend-7"
       style="overflow:visible"
       inkscape:isstock="true">
      <path
         inkscape:connector-curvature="0"
         id="path876-5"
         d="M 0,0 5,-5 -12.5,0 5,5 Z"
         style="fill:#000000;fill-opacity:1;fill-rule:evenodd;stroke:#000000;stroke-width:1.00000003pt;stroke-opacity:1"
         transform="matrix(-0.8,0,0,-0.8,-10,0)" />
    </marker>
    <marker
       inkscape:stockid="Arrow1Lend"
       orient="auto"
       refY="0"
       refX="0"
       id="Arrow1Lend-7-2"
       style="overflow:visible"
       inkscape:isstock="true">
      <path
         inkscape:connector-curvature="0"
         id="path876-5-9"
         d="M 0,0 5,-5 -12.5,0 5,5 Z"
         style="fill:#000000;fill-opacity:1;fill-rule:evenodd;stroke:#000000;stroke-width:1.00000003pt;stroke-opacity:1"
         transform="matrix(-0.8,0,0,-0.8,-10,0)" />
    </marker>
    <marker
       inkscape:stockid="Arrow1Lend"
       orient="auto"
       refY="0"
       refX="0"
       id="Arrow1Lend-7-2-0"
       style="overflow:visible"
       inkscape:isstock="true">
      <path
         inkscape:connector-curvature="0"
         id="path876-5-9-9"
         d="M 0,0 5,-5 -12.5,0 5,5 Z"
         style="fill:#000000;fill-opacity:1;fill-rule:evenodd;stroke:#000000;stroke-width:1.00000003pt;stroke-opacity:1"
         transform="matrix(-0.8,0,0,-0.8,-10,0)" />
    </marker>
    <linearGradient
       inkscape:collect="always"
       xlink:href="#linearGradient1529"
       id="linearGradient1531"
       x1="119.25419"
       y1="-107.85664"
       x2="185.94457"
       y2="-107.85664"
       gradientUnits="userSpaceOnUse" />
  </defs>
  <sodipodi:namedview
     id="base"
     pagecolor="#ffffff"
     bordercolor="#666666"
     borderopacity="1.0"
     inkscape:pageopacity="0.0"
     inkscape:pageshadow="2"
     inkscape:zoom="1.4142136"
     inkscape:cx="381.26251"
     inkscape:cy="531.46874"
     inkscape:document-units="mm"
     inkscape:current-layer="layer1"
     showgrid="false"
     inkscape:window-width="1853"
     inkscape:window-height="1052"
     inkscape:window-x="67"
     inkscape:window-y="0"
     inkscape:window-maximized="1"
     inkscape:snap-grids="true" />
  <metadata
     id="metadata5">
    <rdf:RDF>
      <cc:Work
         rdf:about="">
        <dc:format>image/svg+xml</dc:format>
        <dc:type
           rdf:resource="http://purl.org/dc/dcmitype/StillImage" />
        <dc:title />
      </cc:Work>
    </rdf:RDF>
  </metadata>
  <g
     inkscape:label="Layer 1"
     inkscape:groupmode="layer"
     id="layer1">
    <path
       style="fill:none;stroke:#000000;stroke-width:0.26569352;stroke-linecap:butt;stroke-linejoin:miter;stroke-miterlimit:4;stroke-dasharray:none;stroke-opacity:1"
       d="m 191.52683,31.019486 c -6.73382,8.020592 -13.54979,16.140883 -21.69625,22.772311 -2.96408,1.88622 -5.47643,4.86489 -8.72026,6.07458 -5.15494,0.60416 -10.31518,1.89629 -15.45476,0.49661 -7.90901,-1.01071 -15.79362,-2.57805 -23.70931,-3.29708 -4.52654,0.63299 -9.33668,0.17896 -13.67857,1.51978 -4.54793,2.33048 -9.282068,4.1105 -14.355528,4.88737 -5.298611,1.40769 -10.832761,-0.20927 -16.239458,-0.18956 -10.215033,-1.10439 -20.376205,-3.095 -30.33952,-5.541 -5.929489,-2.34474 -12.009834,-4.39215 -17.2047,-8.18478 C 26.174199,47.430032 23.228001,43.877746 20.126656,40.751479 18.3798,37.580772 16.632943,34.410064 14.886086,31.239357 M 1.5142692,93.114187 c 67.8223578,0 135.6447108,0 203.4670808,0 0,-20.81389 0,-41.62778 0,-62.441665 -4.48484,0.115655 -8.96968,0.23131 -13.45452,0.346965 m -176.640744,0.21987 c -4.457273,-0.01256 -8.9145447,-0.02511 -13.3718168,-0.03767 0,20.6375 0,41.27501 0,61.91251"
       id="path1144"
       inkscape:connector-curvature="0" />
    <path
       style="fill:#ceb990;fill-opacity:1;stroke:#000000;stroke-width:0.26458332px;stroke-linecap:butt;stroke-linejoin:miter;stroke-opacity:1"
       d="m 27.23738,37.176184 c 24.562872,0.616688 49.411468,4.921268 73.70941,-0.898419 22.42864,-2.989106 45.18879,-1.860946 67.58218,0.865407 -18.35383,5.921173 -38.23184,7.375845 -56.83791,11.088716 C 97.131959,45.927835 82.822777,52.867815 69.364654,45.39373 55.487985,40.974773 40.658874,43.596838 27.23738,37.176184 Z"
       id="path929"
       inkscape:connector-curvature="0" />
    <path
       style="fill:#b7a470;fill-opacity:1;stroke:#000000;stroke-width:0.26458332px;stroke-linecap:butt;stroke-linejoin:miter;stroke-opacity:1"
       d="m 21.987392,34.06758 c 14.379082,-0.245676 27.131509,10.6622 41.695883,7.302732 8.128282,-2.441496 11.425648,8.196761 19.399176,6.407911 8.181981,-1.201742 16.319165,-4.634686 24.709159,-2.38657 9.62173,5.611938 17.07221,-4.174951 26.57953,-4.231932 8.31297,-0.420564 16.76085,1.619433 24.45266,-2.695711 7.99832,-3.089063 16.96567,-6.416364 25.46593,-3.776657 -9.01903,2.001565 -17.36596,5.704388 -23.09405,13.413125 -11.35876,9.029756 -26.50558,4.315166 -39.63273,3.884986 -10.64939,-1.326619 -21.32942,0.03396 -31.514386,2.97569 -10.005381,1.32521 -21.052302,0.940905 -29.378259,-5.45959 C 50.037512,44.594751 36.981506,45.793132 27.766547,37.705351 25.840162,36.492761 23.913777,35.28017 21.987392,34.06758 Z"
       id="path921"
       inkscape:connector-curvature="0" />
    <path
       style="fill:#9a8a77;fill-opacity:1;stroke:#000000;stroke-width:0.26458332px;stroke-linecap:butt;stroke-linejoin:miter;stroke-opacity:1"
       d="m 15.154182,32.189753 c 5.388329,15.325672 21.070872,23.807142 35.945581,27.675082 8.378558,2.1211 17.050108,2.68082 25.508236,4.46255 9.539079,1.69337 20.007864,1.72207 28.457241,-3.62503 13.01726,-6.27155 27.33592,-0.79329 40.70301,0.98903 5.66151,0.38288 12.34988,1.70653 17.21983,-1.81255 10.61788,-7.86254 19.53877,-17.735127 27.88588,-27.908952 -12.32232,0.202639 -25.57747,5.133252 -32.38698,15.929632 -11.23669,7.45033 -25.02186,3.2821 -37.3734,1.96742 -7.72143,-0.60951 -15.63781,-1.67609 -23.146354,0.99427 -9.012728,2.52463 -18.929389,6.60864 -28.033239,2.2261 C 61.113068,43.854144 47.455861,44.922625 36.106281,41.502181 31.187906,40.205483 27.06451,37.097638 23.574893,33.538413 21.140884,31.915205 17.974138,31.253065 15.154182,32.189753 Z"
       id="path906"
       inkscape:connector-curvature="0" />
    <text
       xml:space="preserve"
       style="font-style:normal;font-weight:normal;font-size:10.58333302px;line-height:1.25;font-family:sans-serif;letter-spacing:0px;word-spacing:0px;fill:#000000;fill-opacity:1;stroke:none;stroke-width:0.26458332"
       x="90.925087"
       y="82.035118"
       id="text1171"><tspan
         sodipodi:role="line"
         id="tspan1169"
         x="90.925087"
         y="82.035118"
         style="font-size:7.05555534px;stroke-width:0.26458332">Bedrock</tspan></text>
    <text
       xml:space="preserve"
       style="font-style:normal;font-weight:normal;font-size:10.58333302px;line-height:1.25;font-family:sans-serif;letter-spacing:0px;word-spacing:0px;fill:#000000;fill-opacity:1;stroke:none;stroke-width:0.26458332"
       x="65.564804"
       y="59.997982"
       id="text1171-6"><tspan
         sodipodi:role="line"
         id="tspan1169-7"
         x="65.564804"
         y="59.997982"
         style="font-size:3.52777767px;stroke-width:0.26458332">Pre-lake deposit</tspan></text>
    <text
       xml:space="preserve"
       style="font-style:normal;font-weight:normal;font-size:10.58333302px;line-height:1.25;font-family:sans-serif;letter-spacing:0px;word-spacing:0px;fill:#000000;fill-opacity:1;stroke:none;stroke-width:0.26458332"
       x="122.69035"
       y="47.941994"
       id="text1171-6-5"><tspan
         sodipodi:role="line"
         id="tspan1169-7-3"
         x="122.69035"
         y="47.941994"
         style="font-size:3.52777767px;stroke-width:0.26458332">Lake deposit</tspan></text>
    <text
       xml:space="preserve"
       style="font-style:normal;font-weight:normal;font-size:10.58333302px;line-height:1.25;font-family:sans-serif;letter-spacing:0px;word-spacing:0px;fill:#000000;fill-opacity:1;stroke:none;stroke-width:0.26458332"
       x="92.660149"
       y="41.591991"
       id="text1171-6-56"><tspan
         sodipodi:role="line"
         id="tspan1169-7-2"
         x="92.660149"
         y="41.591991"
         style="font-size:3.52777767px;stroke-width:0.26458332">Post-lake deposit</tspan></text>
    <path
       style="fill:none;stroke:#000000;stroke-width:0.26499999;stroke-linecap:butt;stroke-linejoin:miter;stroke-miterlimit:4;stroke-dasharray:none;stroke-opacity:1;marker-end:url(#Arrow1Lend)"
       d="m 68.064059,39.229694 c 0.833705,-3.334163 -1.30162,-6.77089 -4.222876,-8.298169 -2.538438,-1.444966 -5.521379,-1.369739 -8.34483,-1.425256"
       id="path824"
       inkscape:connector-curvature="0" />
    <text
       xml:space="preserve"
       style="font-style:normal;font-weight:normal;font-size:10.58333302px;line-height:1.25;font-family:sans-serif;letter-spacing:0px;word-spacing:0px;fill:#000000;fill-opacity:1;stroke:none;stroke-width:0.26458332"
       x="33.072571"
       y="27.903257"
       id="text1171-3"><tspan
         sodipodi:role="line"
         id="tspan1169-6"
         x="33.072571"
         y="27.903257"
         style="font-size:3.52777767px;stroke-width:0.26458332">Topography</tspan></text>
    <path
       style="fill:none;stroke:#000000;stroke-width:0.273;stroke-linecap:butt;stroke-linejoin:miter;stroke-miterlimit:2.9000001;stroke-dasharray:none;stroke-opacity:1;marker-end:url(#Arrow1Lend-7)"
       d="M 88.756086,46.558661 C 90.502014,36.278814 86.030258,25.682741 79.912622,20.973858 74.596674,16.518758 68.349858,16.750697 62.437039,16.579527"
       id="path824-3"
       inkscape:connector-curvature="0" />
    <text
       xml:space="preserve"
       style="font-style:normal;font-weight:normal;font-size:10.58333302px;line-height:1.25;font-family:sans-serif;letter-spacing:0px;word-spacing:0px;fill:#000000;fill-opacity:1;stroke:none;stroke-width:0.26458332"
       x="40.45903"
       y="17.382622"
       id="text1171-3-5"><tspan
         sodipodi:role="line"
         id="tspan1169-6-6"
         x="40.45903"
         y="17.382622"
         style="font-size:3.52777767px;stroke-width:0.26458332">Lake top</tspan></text>
    <path
       style="fill:none;stroke:#000000;stroke-width:0.273;stroke-linecap:butt;stroke-linejoin:miter;stroke-miterlimit:2.9000001;stroke-dasharray:none;stroke-opacity:1;marker-end:url(#Arrow1Lend-7-2)"
       d="m 158.48698,47.899515 c 1.74592,-10.279846 -2.72583,-20.87592 -8.84347,-25.584802 -5.31595,-4.4551 -11.56277,-4.223161 -17.47558,-4.394331"
       id="path824-3-1"
       inkscape:connector-curvature="0" />
    <text
       xml:space="preserve"
       style="font-style:normal;font-weight:normal;font-size:10.58333302px;line-height:1.25;font-family:sans-serif;letter-spacing:0px;word-spacing:0px;fill:#000000;fill-opacity:1;stroke:none;stroke-width:0.26458332"
       x="107.54572"
       y="18.837677"
       id="text1171-3-5-2"><tspan
         sodipodi:role="line"
         id="tspan1169-6-6-7"
         x="107.54572"
         y="18.837677"
         style="font-size:3.52777767px;stroke-width:0.26458332">Lake bottom</tspan></text>
    <path
       style="fill:none;stroke:#000000;stroke-width:0.273;stroke-linecap:butt;stroke-linejoin:miter;stroke-miterlimit:2.9000001;stroke-dasharray:none;stroke-opacity:1;marker-end:url(#Arrow1Lend-7-2-0)"
       d="m 181.90435,42.451533 c 1.74592,-10.279847 -2.72584,-20.875921 -8.84348,-25.584803 -5.31595,-4.4551 -11.56277,-4.223161 -17.47558,-4.394331"
       id="path824-3-1-3"
       inkscape:connector-curvature="0" />
    <text
       xml:space="preserve"
       style="font-style:normal;font-weight:normal;font-size:10.58333302px;line-height:1.25;font-family:sans-serif;letter-spacing:0px;word-spacing:0px;fill:#000000;fill-opacity:1;stroke:none;stroke-width:0.26458332"
       x="130.10489"
       y="13.655605"
       id="text1171-3-5-2-6"><tspan
         sodipodi:role="line"
         id="tspan1169-6-6-7-0"
         x="130.10489"
         y="13.655605"
         style="font-size:3.52777767px;stroke-width:0.26458332">Bedrock level</tspan></text>
    <rect
       style="opacity:1;fill:url(#linearGradient1531);fill-opacity:1;stroke:#000000;stroke-width:0.39028051;stroke-linejoin:round;stroke-miterlimit:2.9000001;stroke-dasharray:none;stroke-dashoffset:0;stroke-opacity:1"
       id="rect892"
       width="66.300095"
       height="9.0309763"
       x="119.44933"
       y="-112.37212"
       transform="rotate(90)" />
    <path
       style="fill:#000000;stroke:#000000;stroke-width:0.26458332px;stroke-linecap:butt;stroke-linejoin:miter;stroke-opacity:1;fill-opacity:1"
       d="M 88.492937,136.66501 H 129.83953"
       id="path1533"
       inkscape:connector-curvature="0" />
  </g>
</svg>
